<svg width="14" height="17" viewBox="0 0 14 17" fill="none" xmlns="http://www.w3.org/2000/svg">
<path d="M0 16C0 16.2652 0.105356 16.5196 0.292892 16.7071C0.480429 16.8946 0.734784 17 1 17H13C13.2652 17 13.5196 16.8946 13.7071 16.7071C13.8946 16.5196 14 16.2652 14 16C14 15.7348 13.8946 15.4804 13.7071 15.2929C13.5196 15.1054 13.2652 15 13 15H1C0.734784 15 0.480429 15.1054 0.292892 15.2929C0.105356 15.4804 0 15.7348 0 16ZM11.59 6H10V1C10 0.734784 9.89464 0.480444 9.70711 0.292908C9.51957 0.105371 9.26522 0 9 0H5C4.73478 0 4.48043 0.105371 4.29289 0.292908C4.10536 0.480444 4 0.734784 4 1V6H2.41C2.21138 5.99885 2.0169 6.05686 1.85138 6.16666C1.68586 6.27646 1.5568 6.43307 1.48064 6.61652C1.40447 6.79996 1.38465 7.00194 1.42372 7.19669C1.46279 7.39143 1.55897 7.57012 1.7 7.70999L6.28999 12.3C6.47736 12.4862 6.73081 12.5908 6.995 12.5908C7.25918 12.5908 7.51263 12.4862 7.7 12.3L12.29 7.70999C12.4304 7.57072 12.5264 7.39294 12.5658 7.19913C12.6052 7.00531 12.5862 6.80419 12.5113 6.62115C12.4363 6.43812 12.3088 6.2814 12.1448 6.17084C11.9809 6.06027 11.7878 6.00083 11.59 6Z" fill="#6A6969"/>
</svg>
