<svg width="28" height="25" viewBox="0 0 28 25" fill="none" xmlns="http://www.w3.org/2000/svg">
<path fill-rule="evenodd" clip-rule="evenodd" d="M24.0462 12.4254C24.0462 8.14856 21.4651 4.48896 17.7556 2.88672L17.1384 4.27699C20.3367 5.61739 22.5499 8.75954 22.5499 12.4191C22.5499 16.2346 20.2307 19.4266 16.8828 20.7171L17.5 22.1074C21.3155 20.6174 24.0462 16.858 24.0462 12.4254Z" fill="black"/>
<path fill-rule="evenodd" clip-rule="evenodd" d="M6.23438 17.4751L15.3179 25V0L6.23438 7.52494V17.4751Z" fill="black"/>
<path fill-rule="evenodd" clip-rule="evenodd" d="M0 17.1636H2.63092H4.69451V7.83691H0V17.1636Z" fill="black"/>
<path fill-rule="evenodd" clip-rule="evenodd" d="M20.4925 0.773438L19.8192 2.16371C23.6347 4.02157 26.2594 7.93678 26.2095 12.4193C26.2594 17.0577 23.5287 21.029 19.5574 22.8308L20.1746 24.1712C24.6571 22.1637 27.7556 17.6749 27.7556 12.4193C27.7556 7.31957 24.7693 2.8869 20.4925 0.773438Z" fill="black"/>
</svg>
