<svg width="19" height="20" viewBox="0 0 19 20" fill="none" xmlns="http://www.w3.org/2000/svg">
<path d="M16 14.08C15.2596 14.0729 14.5444 14.3483 14 14.85L6.86995 10.7C6.92512 10.4706 6.9553 10.2359 6.95996 10C6.9553 9.7641 6.92512 9.52939 6.86995 9.29999L13.92 5.19C14.4631 5.69871 15.1759 5.9874 15.92 6C16.7156 6 17.4787 5.68392 18.0413 5.12131C18.6039 4.5587 18.92 3.79565 18.92 3C18.92 2.20435 18.6039 1.4413 18.0413 0.878693C17.4787 0.316083 16.7156 0 15.92 0C15.1243 0 14.3612 0.316083 13.7986 0.878693C13.236 1.4413 12.92 2.20435 12.92 3C12.9246 3.2359 12.9548 3.47061 13.0099 3.70001L5.95996 7.81C5.41683 7.30129 4.70402 7.0126 3.95996 7C3.16431 7 2.40125 7.31608 1.83864 7.87869C1.27603 8.4413 0.959961 9.20435 0.959961 10C0.959961 10.7956 1.27603 11.5587 1.83864 12.1213C2.40125 12.6839 3.16431 13 3.95996 13C4.70402 12.9874 5.41683 12.6987 5.95996 12.19L13.08 16.35C13.0281 16.5628 13.0013 16.781 13 17C13 17.7744 13.3076 18.5172 13.8552 19.0648C14.4028 19.6124 15.1455 19.92 15.92 19.92C16.6944 19.92 17.4371 19.6124 17.9847 19.0648C18.5323 18.5172 18.84 17.7744 18.84 17C18.8402 16.2392 18.5436 15.5084 18.0132 14.963C17.4828 14.4176 16.7604 14.1008 16 14.08Z" fill="#6A6969"/>
</svg>
